<svg width="1058" height="785" viewBox="0 0 1058 785" fill="none" xmlns="http://www.w3.org/2000/svg">
<g id="undraw_Ride_a_bicycle_2yok 1" clip-path="url(#clip0)">
<g id="Vector" filter="url(#filter0_d)">
<path d="M209.73 115.43C204.25 122.08 202.14 131.43 199.78 140.22C180.78 211.06 133.96 268.04 80.64 308.74C58.06 325.98 30.57 349.1 35.51 380.01C38.17 396.61 49.84 408.83 58.51 422.35C76.7 450.66 82.6 489.14 73.93 523.03C64.07 561.59 36.51 597.57 45.04 636.56C50.3 660.56 68.16 677.64 85.33 692.32C112.117 715.207 139.757 736.647 168.25 756.64C187.35 770.04 207.67 783.08 229.93 784.78C249.53 786.28 268.73 778.83 287.34 771.48C303.6 765.05 320.27 758.36 333.4 745.48C341.97 737.07 348.8 726.22 358.32 719.34C380.68 703.18 409.4 713.42 435.04 720.34C495.54 736.58 560.29 730.65 617.86 703.6C706.17 662.1 773.48 574.95 859.86 528.19C897 508.08 937.4 495.6 971.79 469.7C991.165 454.953 1007.81 436.936 1020.99 416.46C1046.99 376.35 1061.05 325.21 1056.99 275.15C1052.93 225.09 1030.18 176.85 994.45 148.59C956.2 118.34 907.89 112.69 864.37 94.53C819.43 75.77 779.45 43.53 734.94 23.4C698.924 7.15665 659.728 -0.81716 620.228 0.0636141C580.728 0.944389 541.926 10.6574 506.67 28.49C458.23 52.99 409.13 110.15 355.18 114.49C316.74 117.49 239.75 79.01 209.73 115.43Z" fill="url(#paint0_linear)"/>
</g>
<g id="left-wheel">
<path id="Vector_2" d="M255.23 716.99L248.96 619.05L248.83 618.84L242.51 621.04L213.43 705.89L167.18 673.1L240.85 619.69L240.92 619.48L241.34 619.33L246.09 615.88L168.85 572.57L149.93 593.37L152.93 612.87L241.75 614.49V616.49L151.27 614.87L147.85 592.73L173.75 564.27L212.5 519.07L213.19 520.94L221.39 511.94L251.85 517.4V516.19L253.85 516.25V517.76L299.21 525.88L256.92 610.49L250.75 614.96V615.46V616.02L348.55 581.94L336.94 673.15L253.94 620.28L251.02 618.64L299.96 697.52L255.23 716.99ZM251.23 622.65L257.08 714.03L297.13 696.65L251.23 622.65ZM170.65 673.08L212.44 702.71L239.78 622.97L170.65 673.08ZM252.97 617.42L255.06 618.59L335.41 669.79L346.21 584.92L252.97 617.42ZM245.87 610.22L248.38 614.27L248.82 613.95L251.82 519.42L222.08 514.1L213.92 523.1L245.87 610.22ZM170.45 571.16L245.29 613.16L243.99 611.03L212.41 524.76L175.22 565.63L170.45 571.16ZM253.85 519.77L250.85 612.49L255.37 609.21L296.28 527.39L253.85 519.77Z" fill="#373841"/>
<path id="Vector_3" d="M364.92 589.95C360.91 572.131 352.79 555.495 341.21 541.37C336.911 536.121 332.171 531.25 327.04 526.81C307.314 509.779 282.491 499.779 256.467 498.381C230.443 496.983 204.692 504.265 183.254 519.085C161.816 533.904 145.906 555.422 138.02 580.262C130.134 605.102 130.719 631.857 139.683 656.328C148.647 680.799 165.482 701.601 187.547 715.47C209.612 729.339 235.657 735.488 261.595 732.954C287.533 730.42 311.895 719.345 330.858 701.468C349.822 683.591 362.312 659.923 366.37 634.18C367.314 628.119 367.789 621.994 367.79 615.86C367.797 607.144 366.834 598.454 364.92 589.95ZM249.73 704.3C231.498 704.281 213.714 698.647 198.797 688.164C183.879 677.682 172.552 662.859 166.356 645.712C160.16 628.565 159.395 609.926 164.165 592.329C168.935 574.732 179.009 559.031 193.018 547.361C207.026 535.692 224.288 528.619 242.457 527.106C260.627 525.593 278.821 529.712 294.567 538.904C310.312 548.096 322.845 561.914 330.46 578.48C338.076 595.045 340.405 613.554 337.13 631.49C333.38 651.933 322.58 670.414 306.611 683.718C290.642 697.021 270.514 704.304 249.73 704.3V704.3Z" fill="#373841"/>
<path id="Vector_4" d="M247.81 632.62C254.885 632.62 260.62 626.885 260.62 619.81C260.62 612.735 254.885 607 247.81 607C240.735 607 235 612.735 235 619.81C235 626.885 240.735 632.62 247.81 632.62Z" fill="#373841"/>
</g>
<g id="right-wheel">
<path id="Vector_5" d="M681.42 717.39L675.16 619.49L675.03 619.28L668.71 621.48L639.62 706.29L593.37 673.49L667.06 620.08L667.13 619.87L667.55 619.72L672.3 616.27L595.06 572.96L576.13 593.76L579.13 613.26L667.93 614.84V616.84L577.45 615.22L574.05 593.11L599.94 564.66L638.66 519.49L639.35 521.36L647.55 512.36L678.09 517.83V516.62L680.09 516.68V518.19L725.45 526.31L683.12 610.96L676.95 615.43V615.93V616.49L774.76 582.41L763.15 673.62L680.15 620.75L677.23 619.11L726.17 698L681.42 717.39ZM677.42 623.05L683.27 714.43L723.32 697.05L677.42 623.05ZM596.85 673.49L638.64 703.12L665.98 623.38L596.85 673.49ZM679.17 617.83L681.26 619L761.61 670.2L772.41 585.33L679.17 617.83ZM672.07 610.63L674.58 614.68L675.02 614.36L678.02 519.83L648.28 514.49L640.12 523.49L672.07 610.63ZM596.68 571.58L671.52 613.58L670.22 611.45L638.64 525.18L601.44 566.06L596.68 571.58ZM680.05 520.19L677.05 612.88L681.57 609.6L722.48 527.78L680.05 520.19Z" fill="#373841"/>
<path id="Vector_6" d="M674.757 503C664.144 502.988 653.578 504.415 643.347 507.24C638.071 508.695 632.904 510.523 627.887 512.71C601.157 524.297 579.674 545.387 567.594 571.898C555.514 598.41 553.697 628.459 562.492 656.233C571.287 684.008 590.071 707.533 615.209 722.259C640.348 736.984 670.054 741.863 698.582 735.952C727.109 730.04 752.431 713.759 769.648 690.257C786.865 666.755 794.754 637.702 791.789 608.72C788.823 579.738 775.215 552.885 753.595 533.356C731.975 513.828 703.881 503.012 674.747 503H674.757ZM674.357 709.09C654.076 709.082 634.408 702.137 618.62 689.407C602.831 676.678 591.872 658.931 587.562 639.113C583.252 619.295 585.851 598.599 594.928 580.463C604.004 562.326 619.011 547.84 637.457 539.41C642.149 537.262 647.021 535.532 652.017 534.24C664.229 531.07 676.977 530.537 689.411 532.678C701.845 534.818 713.681 539.581 724.13 546.652C734.58 553.722 743.404 562.937 750.015 573.683C756.627 584.429 760.873 596.46 762.473 608.975C764.073 621.49 762.989 634.202 759.293 646.265C755.598 658.329 749.375 669.467 741.04 678.939C732.704 688.41 722.447 695.998 710.951 701.196C699.455 706.395 686.984 709.086 674.367 709.09H674.357Z" fill="#373841"/>
<path id="Vector_7" d="M673.81 626.62C680.885 626.62 686.62 620.885 686.62 613.81C686.62 606.735 680.885 601 673.81 601C666.735 601 661 606.735 661 613.81C661 620.885 666.735 626.62 673.81 626.62Z" fill="#373841"/>
</g>
<g id="man-bike">
<path id="Vector_8" d="M384.06 554.194L341.353 512.05L328.007 525.574L370.714 567.718L384.06 554.194Z" fill="#535461"/>
<path id="Vector_9" d="M351.54 491.881C351.54 491.881 376.33 478.801 385.91 470.381C391.677 465.335 397.878 460.808 404.44 456.851L435.54 437.921L500.54 432.921L503.54 443.921C503.54 443.921 508.54 459.921 458.54 473.921C408.54 487.921 383.54 509.921 383.54 509.921C383.54 509.921 351.54 520.881 351.54 491.881Z" fill="#DB8B8B"/>
<path id="Vector_10" opacity="0.1" d="M386.19 507.751C384.42 509.101 383.54 509.881 383.54 509.881C383.54 509.881 351.54 520.881 351.54 491.881C351.54 491.881 353.09 491.061 355.54 489.691C358.015 493.721 361.483 497.05 365.611 499.359C369.739 501.669 374.39 502.881 379.12 502.881H382.51L386.19 507.751Z" fill="black"/>
<path id="Vector_11" opacity="0.05" d="M502.6 449.441C499.82 455.331 490.23 465.011 458.54 473.881C417.93 485.251 393.81 501.881 386.19 507.751C384.42 509.101 383.54 509.881 383.54 509.881C383.54 509.881 351.54 520.881 351.54 491.881C351.54 491.881 353.09 491.061 355.54 489.691C362.97 485.621 378.7 476.691 385.88 470.341C391.646 465.294 397.847 460.766 404.41 456.811L435.51 437.881L447.09 436.991L500.51 432.881L503.51 443.881C503.51 443.881 504.21 446.031 502.6 449.441Z" fill="black"/>
<path id="Vector_12" d="M352.04 485.381L325.54 502.881L403.14 567.881C403.14 567.881 414.54 560.881 408.54 552.881C408.54 552.881 388.54 535.881 387.54 511.881L381.54 503.881H378.15C372.418 503.882 366.827 502.102 362.149 498.788C357.472 495.474 353.94 490.789 352.04 485.381V485.381Z" fill="#ABB1D1"/>
<path id="Vector_13" opacity="0.1" d="M502.6 449.441C486.6 441.711 447.54 440.881 447.54 440.881L447.12 436.991L500.54 432.881L503.54 443.881C503.54 443.881 504.21 446.031 502.6 449.441Z" fill="black"/>
<path id="Vector_14" d="M447.54 438.881C447.54 438.881 494.54 439.881 506.54 449.881L500.54 328.881H435.54L447.54 438.881Z" fill="#ABB1D1"/>
<path id="Vector_15" d="M485.3 364.841C485.3 364.841 602.95 360.841 605.35 376.051C607.75 391.261 487.7 384.851 487.7 384.851C487.7 384.851 478.1 375.241 485.3 364.841Z" fill="#535461"/>
<path id="Vector_16" opacity="0.05" d="M485.3 364.841C485.3 364.841 602.95 360.841 605.35 376.051C607.75 391.261 487.7 384.851 487.7 384.851C487.7 384.851 478.1 375.241 485.3 364.841Z" fill="black"/>
<path id="Vector_17" d="M390.06 425.671H369.25V606.551H390.06V425.671Z" fill="#FFFCFC"/>
<path id="Vector_18" opacity="0.1" d="M390.06 425.661V439.591C383.14 440.491 376.06 441.061 369.25 441.281V425.661H390.06Z" fill="black"/>
<path id="Vector_19" d="M388.5 410.671C385.58 410.445 382.676 410.054 379.8 409.501C368.52 407.341 340.08 402.811 332.43 410.501C322.83 420.101 326.03 436.911 351.64 439.311C377.25 441.711 421.27 435.311 430.08 425.701C430.08 425.661 414.15 412.641 388.5 410.671Z" fill="#535461"/>
<path id="Vector_20" d="M384.46 475.291L602.96 407.261L610.16 424.071L386.06 500.901L384.46 475.291Z" fill="#FFFCFC"/>
<path id="Vector_21" d="M449.29 582.541L606.96 427.271L615.76 440.071L465.29 596.941L449.29 582.541Z" fill="#FFFCFC"/>
<path id="Vector_22" opacity="0.1" d="M650.64 529.741C645.644 531.033 640.772 532.763 636.08 534.911L626.52 508.201C631.537 506.014 636.704 504.186 641.98 502.731L650.64 529.741Z" fill="black"/>
<path id="Vector_23" d="M677.39 608.151L666.19 614.551L588.05 396.221L584.55 386.451L602.96 376.041L607.57 390.421L677.39 608.151Z" fill="#FFFCFC"/>
<path id="Vector_24" opacity="0.1" d="M607.57 390.421L588.05 396.221L584.55 386.451L602.96 376.041L607.57 390.421Z" fill="black"/>
<path id="Vector_25" d="M488.5 407.261L598.15 369.641C598.15 369.641 617.36 372.041 610.15 388.051L499.71 420.861C499.71 420.861 482.91 422.461 488.5 407.261Z" fill="#535461"/>
<path id="Vector_26" opacity="0.1" d="M364.85 615.751C364.849 621.885 364.374 628.01 363.43 634.071C353.83 633.381 343.91 632.381 334.19 631.381C336.349 619.49 336.081 607.285 333.4 595.501C342.87 593.501 352.54 591.591 361.98 589.861C363.893 598.358 364.855 607.041 364.85 615.751V615.751Z" fill="black"/>
<path id="Vector_27" opacity="0.1" d="M390.06 585.271V606.541H369.25V588.541C376.45 587.291 383.45 586.181 390.06 585.271Z" fill="black"/>
<path id="Vector_28" d="M255.6 615.381C255.6 615.381 423.68 571.381 437.28 588.171C450.88 604.961 465.29 627.381 422.91 635.381C380.53 643.381 252.43 621.771 252.43 621.771L255.6 615.381Z" fill="#FFFCFC"/>
<path id="Vector_29" opacity="0.1" d="M338.27 541.261L316.91 560.811C313.127 555.955 308.851 551.504 304.15 547.531L324.09 526.701C329.224 531.14 333.968 536.011 338.27 541.261V541.261Z" fill="black"/>
<path id="Vector_30" d="M250 606.551L375.65 475.291L379.66 505.701L256.4 618.551L250 606.551Z" fill="#FFFCFC"/>
<path id="Vector_31" opacity="0.1" d="M445.28 628.161C459.424 628.161 470.89 616.695 470.89 602.551C470.89 588.407 459.424 576.941 445.28 576.941C431.136 576.941 419.67 588.407 419.67 602.551C419.67 616.695 431.136 628.161 445.28 628.161Z" fill="black"/>
<path id="Vector_32" d="M446.89 628.161C461.034 628.161 472.5 616.695 472.5 602.551C472.5 588.407 461.034 576.941 446.89 576.941C432.746 576.941 421.28 588.407 421.28 602.551C421.28 616.695 432.746 628.161 446.89 628.161Z" fill="#535461"/>
<path id="Vector_33" d="M440.052 600.627L440.044 600.633C437.037 602.882 436.422 607.143 438.671 610.151L458.997 637.331C461.246 640.339 465.508 640.954 468.515 638.705L468.523 638.699C471.531 636.449 472.145 632.188 469.896 629.181L449.57 602C447.321 598.993 443.06 598.378 440.052 600.627Z" fill="#0C0C0C"/>
<path id="Vector_34" d="M562.54 246.881L560.16 276.991C559.886 280.805 559.936 284.635 560.31 288.441C560.62 291.811 560.31 297.711 557.01 306.711C552.773 318.208 550.583 330.358 550.54 342.611V376.881L527.54 372.881C527.54 372.881 528.54 324.881 524.54 316.881C520.54 308.881 527.54 237.881 527.54 237.881L562.54 246.881Z" fill="#CB7252"/>
<path id="Vector_35" d="M448.56 476.881L439.91 526.081C438.819 532.65 437.146 539.109 434.91 545.381C429.84 559.241 433.08 578.671 435.54 589.271C436.63 593.951 437.54 596.911 437.54 596.911L411.54 610.911L403.54 604.911V600.911L402.54 511.911C396.54 497.911 398.54 476.911 402.54 468.911C403.677 466.282 404.477 463.52 404.92 460.691C406.92 449.971 407.54 434.911 407.54 434.911C407.54 434.911 423.54 407.911 442.54 425.911C449.54 432.541 452.2 441.211 452.76 449.511C453.74 463.721 448.56 476.881 448.56 476.881Z" fill="#CB7252"/>
<path id="Vector_36" opacity="0.1" d="M452.76 449.481C438.89 457.721 414.76 460.051 404.92 460.661C406.92 449.941 407.54 434.881 407.54 434.881C407.54 434.881 423.54 407.881 442.54 425.881C449.54 432.511 452.2 441.181 452.76 449.481Z" fill="black"/>
<path id="Vector_37" d="M486.54 424.881C475.906 430.544 465.857 437.243 456.54 444.881C440.54 457.881 400.54 458.881 400.54 458.881V443.881C401.54 425.881 384.54 405.881 361.54 349.881C346.85 314.121 350.92 293.881 355.78 283.881C358.54 278.231 361.54 275.881 361.54 275.881L486.54 299.881L491.01 313.281L500.54 341.881C500.54 341.881 465.54 343.881 459.54 346.881C453.54 349.881 457.54 376.881 457.54 376.881C451.54 404.881 486.54 424.881 486.54 424.881Z" fill="#ABB1D1"/>
<path id="Vector_38" d="M567.54 221.891C564.93 242.241 564.06 267.891 564.06 267.891C541.06 285.891 523.06 262.891 523.06 262.891C501.34 268.721 491.13 287.731 486.32 304.321C483.744 313.295 482.312 322.558 482.06 331.891C482.06 331.891 475.98 336.891 464.78 337.891C454.19 338.781 439.01 336.021 420.06 321.891C381.06 292.891 346.06 300.891 346.06 300.891C346.06 300.891 353.06 260.891 369.06 248.891C385.06 236.891 397.06 221.891 417.06 175.891C437.06 129.891 478.06 140.891 478.06 140.891C478.06 140.891 480.06 131.891 517.06 140.891C526.072 143.253 534.414 147.672 541.43 153.801C561.22 170.441 570.82 196.251 567.54 221.891Z" fill="url(#paint1_linear)"/>
<path id="Vector_39" d="M538.91 149.381C538.86 150.711 538.75 152.191 538.57 153.841C536.57 171.841 534.57 169.841 512.57 173.841C498.89 176.331 491.78 164.901 488.36 155.901C487.122 152.641 486.188 149.273 485.57 145.841L533.57 137.841C533.57 137.841 539.32 136.231 538.91 149.381Z" fill="#CB7252"/>
<path id="Vector_40" opacity="0.05" d="M494.8 290.311C492.224 299.285 490.792 308.548 490.54 317.881C490.54 317.881 484.46 322.881 473.26 323.881C472.944 323.244 472.703 322.573 472.54 321.881C470.54 312.881 455.54 296.881 455.54 296.881C445.54 287.881 443.54 271.881 443.54 271.881L427.04 223.381L421.54 218.881C421.54 218.881 444.54 200.881 464.54 215.881C484.54 230.881 478.54 262.881 478.54 262.881L482.54 273.881C486.69 277.381 490.91 283.551 494.8 290.311Z" fill="black"/>
<path id="Vector_41" d="M424.54 217.881L446.54 270.881C446.54 270.881 448.54 286.881 458.54 295.881C458.54 295.881 473.54 311.881 475.54 320.881C477.54 329.881 505.54 353.881 505.54 353.881C505.54 353.881 531.54 377.881 533.54 386.881C533.54 386.881 557.54 393.881 554.54 407.881C554.54 407.881 572.54 389.881 554.54 372.881C536.54 355.881 512.54 320.881 512.54 320.881C512.54 320.881 498.54 283.881 485.54 272.881L481.54 261.881C481.54 261.881 487.54 229.881 467.54 214.881C447.54 199.881 424.54 217.881 424.54 217.881Z" fill="#CB7252"/>
<path id="Vector_42" opacity="0.1" d="M437.54 596.881L411.54 610.881L403.54 604.881V600.881C412.524 600.243 421.253 597.609 429.09 593.171C431.49 591.811 433.75 590.471 435.56 589.291C436.61 593.921 437.54 596.881 437.54 596.881Z" fill="black"/>
<path id="Vector_43" opacity="0.1" d="M467.54 175.881L481.54 230.881C481.54 230.881 438.54 237.881 429.54 230.881C420.54 223.881 403.54 221.881 403.54 221.881C403.54 221.881 421.54 169.881 431.54 163.881C441.54 157.881 467.54 175.881 467.54 175.881Z" fill="black"/>
<path id="Vector_44" d="M467.54 173.881L481.54 228.881C481.54 228.881 438.54 235.881 429.54 228.881C420.54 221.881 403.54 219.881 403.54 219.881C403.54 219.881 421.54 167.881 431.54 161.881C441.54 155.881 467.54 173.881 467.54 173.881Z" fill="white"/>
<path id="Vector_45" opacity="0.1" d="M538.91 148.381C536.109 152.247 532.547 155.499 528.443 157.938C524.338 160.376 519.778 161.949 515.043 162.56C510.308 163.171 505.499 162.806 500.91 161.489C496.321 160.172 492.05 157.93 488.36 154.901C487.122 151.641 486.188 148.273 485.57 144.841L533.57 136.841C533.57 136.841 539.32 135.231 538.91 148.381Z" fill="black"/>
<path id="Vector_46" d="M545.54 126.881C545.54 136.163 541.852 145.066 535.289 151.63C528.725 158.193 519.823 161.881 510.54 161.881C501.257 161.881 492.355 158.193 485.791 151.63C479.228 145.066 475.54 136.163 475.54 126.881C475.54 126.301 475.54 125.721 475.54 125.141C475.771 115.858 479.68 107.048 486.406 100.647C493.133 94.2463 502.127 90.7801 511.41 91.0108C520.693 91.2416 529.503 95.1503 535.904 101.877C542.305 108.604 545.771 117.598 545.54 126.881V126.881Z" fill="#CB7252"/>
<path id="Vector_47" opacity="0.1" d="M545.54 126.881C545.543 130.107 545.099 133.317 544.22 136.421C541.515 137.01 538.693 136.752 536.14 135.681C532.4 134.211 529.19 131.681 525.6 129.861C515.49 124.741 503.46 125.751 492.26 127.441C486.7 128.281 480.39 129.061 476.02 125.521C475.87 125.402 475.726 125.275 475.59 125.141C475.821 115.858 479.73 107.048 486.456 100.647C493.183 94.2463 502.177 90.7801 511.46 91.0108C520.743 91.2416 529.553 95.1503 535.954 101.877C542.355 108.604 545.821 117.598 545.59 126.881H545.54Z" fill="black"/>
<path id="Vector_48" d="M480.04 630.381H420.04V649.381H480.04V630.381Z" fill="#535461"/>
<path id="Vector_49" d="M429.05 595.121C434.42 592.121 439.13 589.121 439.54 587.881C439.54 587.881 453.09 602.181 465.16 606.621C469.219 608.12 473.104 610.051 476.75 612.381C481.53 615.381 488.35 618.911 494.54 618.911C494.54 618.911 508.54 630.911 481.54 632.911C454.54 634.911 391.54 627.911 391.54 627.911L395.54 602.911C407.227 603.596 418.864 600.891 429.05 595.121Z" fill="#ABB1D1"/>
</g>
<g id="hat">
<path id="Vector_50" d="M454.624 104.927C456.754 111.607 466.984 111.817 472.234 116.737C474.964 119.297 476.234 123.077 479.234 125.357C483.404 128.537 489.424 127.837 494.734 127.077C505.424 125.557 516.904 124.647 526.544 129.257C529.964 130.887 533.034 133.167 536.604 134.497C540.174 135.827 544.604 135.987 547.504 133.627C549.824 131.737 550.674 128.627 552.774 126.547C554.404 124.907 556.674 123.987 558.534 122.547C562.614 119.467 564.374 114.447 565.534 109.647C567.934 99.7667 568.624 89.1167 564.534 79.7467C560.444 70.3767 550.604 62.7467 539.864 63.2367C536.574 63.3867 533.364 64.2367 530.084 64.5967C521.534 65.4667 513.084 62.5967 504.504 62.1067C502.015 61.8039 499.49 62.1483 497.174 63.1067C495.427 64.0775 493.92 65.4273 492.764 67.0567C488.836 72.2021 486.146 78.1836 484.904 84.5367C483.904 89.3267 483.854 93.6667 477.984 94.4067C471.314 95.2867 450.114 90.7967 454.624 104.927Z" fill="#472727"/>
</g>
</g>
<defs>
<filter id="filter0_d" x="30.9279" y="-0.00216675" width="1030.75" height="792.976" filterUnits="userSpaceOnUse" color-interpolation-filters="sRGB">
<feFlood flood-opacity="0" result="BackgroundImageFix"/>
<feColorMatrix in="SourceAlpha" type="matrix" values="0 0 0 0 0 0 0 0 0 0 0 0 0 0 0 0 0 0 127 0"/>
<feOffset dy="4"/>
<feGaussianBlur stdDeviation="2"/>
<feColorMatrix type="matrix" values="0 0 0 0 0 0 0 0 0 0 0 0 0 0 0 0 0 0 0.25 0"/>
<feBlend mode="normal" in2="BackgroundImageFix" result="effect1_dropShadow"/>
<feBlend mode="normal" in="SourceGraphic" in2="effect1_dropShadow" result="shape"/>
</filter>
<linearGradient id="paint0_linear" x1="924.5" y1="111.5" x2="72.5" y2="753.5" gradientUnits="userSpaceOnUse">
<stop stop-color="#565050"/>
<stop offset="1" stop-color="#FFFBFB"/>
</linearGradient>
<linearGradient id="paint1_linear" x1="457.116" y1="136.891" x2="457.116" y2="338.042" gradientUnits="userSpaceOnUse">
<stop stop-color="white"/>
<stop offset="1" stop-color="white"/>
</linearGradient>
<clipPath id="clip0">
<rect width="1057.7" height="784.98" fill="white"/>
</clipPath>
</defs>
</svg>
